# xmcd
#
# Track frame offsets:
#	150
#	18670
#	32734
#	50045
#	70854
#	90858
#	112644
#
# Disc length: 1951 seconds
#
# Revision: 1
# Processed by: cddbd v1.5.2PL0 Copyright (c) Steve Scherf et al.
# Submitted via: EasyCDDAExtractor 6.2.0.3
#
DISCID=4d079d07
DTITLE=Prince Robinson - Burning Desire
DYEAR=2007
DGENRE=Blues
TTITLE0=Oh Pretty Woman
TTITLE1=Feed On The Fiction
TTITLE2=Sick As The Secrets
TTITLE3=Marianne
TTITLE4=Far Side Of Midnight
TTITLE5=Burning Desire
TTITLE6=Don't Answer The Door
EXTD=
EXTT0=
EXTT1=
EXTT2=
EXTT3=
EXTT4=
EXTT5=
EXTT6=
PLAYORDER=
